<svg xmlns="http://www.w3.org/2000/svg" width="32" height="28.73" viewBox="0 0 32 28.73">
	<style type="text/css">
		.st0{fill:#000000;}
	</style>
	<path class="st0" d="M16.31,28.73L2.23,15.65C0.79,13.93 0,11.74 0,9.5C0,4.26 4.26,0 9.49,0C11.94,0 14.25,0.91 15.99,2.54C17.74,0.91 20.05,0 22.49,0C27.73,0 31.99,4.26 31.99,9.5C31.99,11.74 31.2,13.93 29.76,15.65L29.67,15.75L18.67,25.74L17.32,24.25L28.27,14.32C29.37,12.98 29.99,11.23 29.99,9.5C29.99,5.36 26.63,2 22.49,2C20.27,2 18.18,2.96 16.76,4.64L15.99,5.55L15.23,4.64C13.81,2.96 11.72,2 9.49,2C5.36,2 1.99,5.36 1.99,9.5C1.99,11.23 2.62,12.99 3.72,14.32L17.67,27.26Z"/>
	<path class="st0" d="M19.44,8L17.68,7.04C18.39,5.75 19.56,4.82 20.97,4.41C22.39,4 23.87,4.17 25.16,4.88L24.19,6.63C23.37,6.18 22.43,6.07 21.53,6.33C20.63,6.59 19.89,7.19 19.44,8M15.2,22.24L5.13,12.88C4.4,11.91 4,10.71 4,9.49C4,6.46 6.46,3.99 9.5,3.99L9.5,5.99C7.56,5.99 6,7.56 6,9.49C6,10.24 6.24,11 6.68,11.61L16.56,20.78Z"/>
</svg>