<svg xmlns="http://www.w3.org/2000/svg" width="32" height="32" viewBox="0 0 32 32">
	<style type="text/css">
		.st0{fill:#000000;}
	</style>
	<path class="st0" d="M13,2C6.93,2 2,6.93 2,13C2,19.06 6.93,24 13,24C19.06,24 24,19.06 24,13C24,6.93 19.06,2 13,2M13,26C5.83,26 0,20.16 0,13C0,5.83 5.83,0 13,0C20.16,0 26,5.83 26,13C26,20.16 20.16,26 13,26"/>
	<path class="st0" d="M29,32C28.23,32 27.46,31.7 26.87,31.12L21.3,25.71L22.69,24.28L28.28,29.69C28.68,30.1 29.31,30.09 29.7,29.7C29.89,29.52 30,29.27 30,29C30,28.72 29.89,28.47 29.7,28.29L24.28,22.69L25.71,21.3L31.13,26.88C31.68,27.44 32,28.19 32,29C32,29.8 31.68,30.55 31.12,31.12C30.53,31.7 29.76,32 29,32"/>
	<path class="st0" d="M7.34,18.65C4.22,15.53 4.22,10.46 7.34,7.34L8.76,8.75C6.42,11.09 6.42,14.9 8.76,17.23Z"/>
</svg>